<?xml version="1.0" encoding="UTF-8"?>
<svg xmlns="http://www.w3.org/2000/svg" width="64" height="64" viewBox="0 0 64 64">
  <!-- Transparent background (allows Qt pressed state to show through) -->

  <!-- Bridge Structure with light outline -->
  <!-- Bridge deck -->
  <rect x="4" y="40" width="56" height="5" rx="1" fill="#8b7355" stroke="#d4c4b0" stroke-width="1.5"/>
  <!-- Bridge railings -->
  <rect x="4" y="37" width="56" height="2" rx="0.5" fill="#b89c7a" stroke="#d4c4b0" stroke-width="0.5"/>
  <!-- Bridge supports/pillars -->
  <rect x="8" y="45" width="6" height="8" fill="#7a6450" stroke="#d4c4b0" stroke-width="1"/>
  <rect x="50" y="45" width="6" height="8" fill="#7a6450" stroke="#d4c4b0" stroke-width="1"/>
  <!-- Bridge arch underneath -->
  <path d="M 14 53 Q 32 47 50 53" fill="none" stroke="#7a6450" stroke-width="2.5"/>
  <path d="M 14 53 Q 32 47 50 53" fill="none" stroke="#d4c4b0" stroke-width="1" opacity="0.6"/>

  <!-- Robot SITTING on bridge edge, feet dangling with light outline -->
  <!-- Robot body (sitting position - shorter/compressed) -->
  <rect x="24" y="24" width="16" height="10" rx="2" fill="#5a9ee8" stroke="#e0f0ff" stroke-width="1.5"/>
  <!-- Robot head -->
  <rect x="26" y="14" width="12" height="10" rx="2" fill="#5a9ee8" stroke="#e0f0ff" stroke-width="1.5"/>
  <!-- Robot face plate -->
  <rect x="28" y="16" width="8" height="6" rx="1" fill="#f0f8ff" stroke="#c0e0ff" stroke-width="0.5"/>
  <!-- Robot eyes -->
  <circle cx="30" cy="19" r="1.5" fill="#2c5aa0"/>
  <circle cx="34" cy="19" r="1.5" fill="#2c5aa0"/>
  <!-- Robot antenna with GRAY ball (matches gear color) with light outline -->
  <line x1="32" y1="14" x2="32" y2="9" stroke="#3c6ab0" stroke-width="2" stroke-linecap="round"/>
  <circle cx="32" cy="8" r="3" fill="#a8b8c8" stroke="#d0e0f0" stroke-width="1"/>
  <!-- Robot arms (resting on bridge) -->
  <rect x="18" y="28" width="6" height="4" rx="1.5" fill="#4a8bd8" stroke="#c0e0ff" stroke-width="0.5"/>
  <rect x="40" y="28" width="6" height="4" rx="1.5" fill="#4a8bd8" stroke="#c0e0ff" stroke-width="0.5"/>
  <!-- Robot legs (dangling over edge) -->
  <rect x="26" y="34" width="4" height="12" rx="1" fill="#4a8bd8" stroke="#c0e0ff" stroke-width="0.5"/>
  <rect x="34" y="34" width="4" height="12" rx="1" fill="#4a8bd8" stroke="#c0e0ff" stroke-width="0.5"/>
  <!-- Robot feet -->
  <rect x="25" y="45" width="6" height="3" rx="1" fill="#3c6ab0" stroke="#c0e0ff" stroke-width="0.5"/>
  <rect x="33" y="45" width="6" height="3" rx="1" fill="#3c6ab0" stroke="#c0e0ff" stroke-width="0.5"/>

  <!-- Better Gear symbols in TOP corners with light outlines -->
  <!-- Left gear -->
  <circle cx="10" cy="10" r="6" fill="#a8b8c8" stroke="#d0e0f0" stroke-width="1.5"/>
  <!-- Gear teeth (8 teeth around the gear) -->
  <rect x="8" y="2" width="4" height="3" fill="#a8b8c8" stroke="#d0e0f0" stroke-width="0.5"/>
  <rect x="8" y="15" width="4" height="3" fill="#a8b8c8" stroke="#d0e0f0" stroke-width="0.5"/>
  <rect x="2" y="8" width="3" height="4" fill="#a8b8c8" stroke="#d0e0f0" stroke-width="0.5"/>
  <rect x="15" y="8" width="3" height="4" fill="#a8b8c8" stroke="#d0e0f0" stroke-width="0.5"/>
  <!-- Diagonal teeth -->
  <rect x="3" y="3" width="3" height="3" fill="#a8b8c8" stroke="#d0e0f0" stroke-width="0.5" transform="rotate(45, 4.5, 4.5)"/>
  <rect x="14" y="3" width="3" height="3" fill="#a8b8c8" stroke="#d0e0f0" stroke-width="0.5" transform="rotate(-45, 15.5, 4.5)"/>
  <rect x="3" y="14" width="3" height="3" fill="#a8b8c8" stroke="#d0e0f0" stroke-width="0.5" transform="rotate(-45, 4.5, 15.5)"/>
  <rect x="14" y="14" width="3" height="3" fill="#a8b8c8" stroke="#d0e0f0" stroke-width="0.5" transform="rotate(45, 15.5, 15.5)"/>
  <!-- Gear center hole -->
  <circle cx="10" cy="10" r="2.5" fill="#7a6450" stroke="#d4c4b0" stroke-width="0.5"/>

  <!-- Right gear -->
  <circle cx="54" cy="10" r="6" fill="#a8b8c8" stroke="#d0e0f0" stroke-width="1.5"/>
  <!-- Gear teeth (8 teeth around the gear) -->
  <rect x="52" y="2" width="4" height="3" fill="#a8b8c8" stroke="#d0e0f0" stroke-width="0.5"/>
  <rect x="52" y="15" width="4" height="3" fill="#a8b8c8" stroke="#d0e0f0" stroke-width="0.5"/>
  <rect x="46" y="8" width="3" height="4" fill="#a8b8c8" stroke="#d0e0f0" stroke-width="0.5"/>
  <rect x="59" y="8" width="3" height="4" fill="#a8b8c8" stroke="#d0e0f0" stroke-width="0.5"/>
  <!-- Diagonal teeth -->
  <rect x="47" y="3" width="3" height="3" fill="#a8b8c8" stroke="#d0e0f0" stroke-width="0.5" transform="rotate(45, 48.5, 4.5)"/>
  <rect x="58" y="3" width="3" height="3" fill="#a8b8c8" stroke="#d0e0f0" stroke-width="0.5" transform="rotate(-45, 59.5, 4.5)"/>
  <rect x="47" y="14" width="3" height="3" fill="#a8b8c8" stroke="#d0e0f0" stroke-width="0.5" transform="rotate(-45, 48.5, 15.5)"/>
  <rect x="58" y="14" width="3" height="3" fill="#a8b8c8" stroke="#d0e0f0" stroke-width="0.5" transform="rotate(45, 59.5, 15.5)"/>
  <!-- Gear center hole -->
  <circle cx="54" cy="10" r="2.5" fill="#7a6450" stroke="#d4c4b0" stroke-width="0.5"/>

  <!-- Gray Data Flow (river under bridge - settings) -->
  <!-- Data stream background -->
  <path d="M 0 60 Q 32 55 64 60" fill="none" stroke="#a8b8c8" stroke-width="4" opacity="0.4"/>
  <!-- Left arrow -->
  <path d="M 6 59 L 16 59" stroke="#a8b8c8" stroke-width="2.5" stroke-linecap="round"/>
  <polygon points="6,59 11,56 11,62" fill="#a8b8c8" stroke="#d0e0f0" stroke-width="0.5"/>
  <!-- Right arrow -->
  <path d="M 48 59 L 58 59" stroke="#a8b8c8" stroke-width="2.5" stroke-linecap="round"/>
  <polygon points="58,59 53,56 53,62" fill="#a8b8c8" stroke="#d0e0f0" stroke-width="0.5"/>
  <!-- Center data dots -->
  <circle cx="26" cy="57" r="2" fill="#a8b8c8" stroke="#d0e0f0" stroke-width="0.5"/>
  <circle cx="32" cy="56" r="2" fill="#a8b8c8" stroke="#d0e0f0" stroke-width="0.5"/>
  <circle cx="38" cy="57" r="2" fill="#a8b8c8" stroke="#d0e0f0" stroke-width="0.5"/>
</svg>
